# xmcd
#
# Track frame offsets: 
#        150
#        19989
#        44046
#        71615
#        92952
#        115629
#        127746
#        142456
#        162006
#        180233
#        197395
#        229725
#        252323
#        267599
#        288613
#
# Disc length: 4013 seconds
#
# Revision: 0
# Processed by: cddbd v1.5.2PL0 Copyright (c) Steve Scherf et al.
# Submitted via: ExactAudioCopy v0.99pb4
#
DISCID=dc0fab0f
DTITLE=Various Artist - Indian Rezervation - Blues And More - CD 2
DYEAR=2009
DGENRE=Blues
TTITLE0=Keith Secola - 4R Ancestors
TTITLE1=Alex Jacobs - Indian List
TTITLE2=Indigenous - Leaving
TTITLE3=Aaron White - John Doe
TTITLE4=Corn-Bred - General Sullivan
TTITLE5=Art Napoleon - Hunting Chant
TTITLE6=Star Nayea - Silenced My Tongue
TTITLE7=Derek Miller - Mystery Train (The Lonely Hearts Club)
TTITLE8=Cary Morin - Lacrosse
TTITLE9=Quese Imc - Good Ol' Amerikkka
TTITLE10=Butch Mudbone - It Was In The Old Times
TTITLE11=Faron 'Pappy' Johns - Thru The Door
TTITLE12=Sandy Scofield - Layla's Lullaby (Kawapimtim)
TTITLE13=Tonemah - There's A Train
TTITLE14=Keith Secola - 4R Ancestors
EXTD=
EXTT0=
EXTT1=
EXTT2=
EXTT3=
EXTT4=
EXTT5=
EXTT6=
EXTT7=
EXTT8=
EXTT9=
EXTT10=
EXTT11=
EXTT12=
EXTT13=
EXTT14=
PLAYORDER=
